<svg width="576" height="144" viewBox="0 0 576 144" fill="none" xmlns="http://www.w3.org/2000/svg">
<path d="M60.48 39.28V106H49.536V76.816H18.144V106H7.2V39.28H18.144V67.888H49.536V39.28H60.48ZM74.1195 79.312C74.1195 74 75.2075 69.296 77.3835 65.2C79.6235 61.104 82.6315 57.936 86.4075 55.696C90.2475 53.392 94.4715 52.24 99.0795 52.24C103.239 52.24 106.855 53.072 109.927 54.736C113.063 56.336 115.559 58.352 117.416 60.784V53.104H128.456V106H117.416V98.128C115.559 100.624 113.031 102.704 109.831 104.368C106.631 106.032 102.983 106.864 98.8875 106.864C94.3435 106.864 90.1835 105.712 86.4075 103.408C82.6315 101.04 79.6235 97.776 77.3835 93.616C75.2075 89.392 74.1195 84.624 74.1195 79.312ZM117.416 79.504C117.416 75.856 116.648 72.688 115.111 70C113.639 67.312 111.687 65.264 109.255 63.856C106.823 62.448 104.199 61.744 101.383 61.744C98.5675 61.744 95.9435 62.448 93.5115 63.856C91.0795 65.2 89.0955 67.216 87.5595 69.904C86.0875 72.528 85.3515 75.664 85.3515 79.312C85.3515 82.96 86.0875 86.16 87.5595 88.912C89.0955 91.664 91.0795 93.776 93.5115 95.248C96.0075 96.656 98.6315 97.36 101.383 97.36C104.199 97.36 106.823 96.656 109.255 95.248C111.687 93.84 113.639 91.792 115.111 89.104C116.648 86.352 117.416 83.152 117.416 79.504ZM156.654 60.784C158.254 58.096 160.366 56.016 162.99 54.544C165.678 53.008 168.846 52.24 172.494 52.24V63.568H169.71C165.422 63.568 162.158 64.656 159.918 66.832C157.742 69.008 156.654 72.784 156.654 78.16V106H145.71V53.104H156.654V60.784ZM249.466 52.24C253.626 52.24 257.338 53.104 260.602 54.832C263.93 56.56 266.522 59.12 268.378 62.512C270.298 65.904 271.258 70 271.258 74.8V106H260.41V76.432C260.41 71.696 259.226 68.08 256.858 65.584C254.49 63.024 251.258 61.744 247.162 61.744C243.066 61.744 239.802 63.024 237.37 65.584C235.002 68.08 233.818 71.696 233.818 76.432V106H222.97V76.432C222.97 71.696 221.786 68.08 219.418 65.584C217.05 63.024 213.818 61.744 209.722 61.744C205.626 61.744 202.362 63.024 199.93 65.584C197.562 68.08 196.378 71.696 196.378 76.432V106H185.434V53.104H196.378V59.152C198.17 56.976 200.442 55.28 203.194 54.064C205.946 52.848 208.89 52.24 212.026 52.24C216.25 52.24 220.026 53.136 223.354 54.928C226.682 56.72 229.242 59.312 231.034 62.704C232.634 59.504 235.13 56.976 238.522 55.12C241.914 53.2 245.562 52.24 249.466 52.24ZM426.022 52.24C430.182 52.24 433.894 53.104 437.158 54.832C440.486 56.56 443.078 59.12 444.934 62.512C446.79 65.904 447.718 70 447.718 74.8V106H436.87V76.432C436.87 71.696 435.686 68.08 433.318 65.584C430.95 63.024 427.718 61.744 423.622 61.744C419.526 61.744 416.262 63.024 413.83 65.584C411.462 68.08 410.278 71.696 410.278 76.432V106H399.334V53.104H410.278V59.152C412.07 56.976 414.342 55.28 417.094 54.064C419.91 52.848 422.886 52.24 426.022 52.24ZM513.038 78.256C513.038 80.24 512.91 82.032 512.654 83.632H472.238C472.558 87.856 474.126 91.248 476.942 93.808C479.758 96.368 483.214 97.648 487.31 97.648C493.198 97.648 497.358 95.184 499.79 90.256H511.598C509.998 95.12 507.086 99.12 502.862 102.256C498.702 105.328 493.518 106.864 487.31 106.864C482.254 106.864 477.71 105.744 473.678 103.504C469.71 101.2 466.574 98 464.27 93.904C462.03 89.744 460.91 84.944 460.91 79.504C460.91 74.064 461.998 69.296 464.174 65.2C466.414 61.04 469.518 57.84 473.486 55.6C477.518 53.36 482.126 52.24 487.31 52.24C492.302 52.24 496.75 53.328 500.654 55.504C504.558 57.68 507.598 60.752 509.774 64.72C511.95 68.624 513.038 73.136 513.038 78.256ZM501.614 74.8C501.55 70.768 500.11 67.536 497.294 65.104C494.478 62.672 490.99 61.456 486.83 61.456C483.054 61.456 479.822 62.672 477.134 65.104C474.446 67.472 472.846 70.704 472.334 74.8H501.614ZM574.303 53.104L541.855 130.864H530.527L541.279 105.136L520.447 53.104H532.639L547.519 93.424L562.975 53.104H574.303Z" fill="#cecece"/>
<path d="M380.5 91.5C380.5 95.9657 376.848 101.168 368.311 105.522C360.018 109.752 348.247 112.5 335 112.5C321.753 112.5 309.982 109.752 301.689 105.522C293.152 101.168 289.5 95.9657 289.5 91.5C289.5 87.0343 293.152 81.8316 301.689 77.4775C309.982 73.2481 321.753 70.5 335 70.5C348.247 70.5 360.018 73.2481 368.311 77.4775C376.848 81.8316 380.5 87.0343 380.5 91.5Z" fill="black" stroke="#cecece" stroke-width="9"/>
<path d="M380.5 75.5C380.5 79.9657 376.848 85.1684 368.311 89.5225C360.018 93.7519 348.247 96.5 335 96.5C321.753 96.5 309.982 93.7519 301.689 89.5225C293.152 85.1684 289.5 79.9657 289.5 75.5C289.5 71.0343 293.152 65.8316 301.689 61.4775C309.982 57.2481 321.753 54.5 335 54.5C348.247 54.5 360.018 57.2481 368.311 61.4775C376.848 65.8316 380.5 71.0343 380.5 75.5Z" fill="black" stroke="#cecece" stroke-width="9"/>
</svg>
