<svg width="289" height="289" viewBox="0 0 289 289" fill="none" xmlns="http://www.w3.org/2000/svg">
<circle cx="144.5" cy="144.5" r="140" fill="white" stroke="black" stroke-width="9"/>
<path d="M228 187.515C228 194.59 221.483 203.221 205.709 210.492C190.534 217.487 169.077 222 145 222C120.923 222 99.4664 217.487 84.2907 210.492C68.5173 203.221 62 194.59 62 187.515C62 180.44 68.5173 171.808 84.2907 164.538C99.4664 157.543 120.923 153.03 145 153.03C169.077 153.03 190.534 157.543 205.709 164.538C221.483 171.808 228 180.44 228 187.515Z" fill="white" stroke="black" stroke-width="14"/>
<path d="M228 160.485C228 167.56 221.483 176.192 205.709 183.462C190.534 190.457 169.077 194.97 145 194.97C120.923 194.97 99.4664 190.457 84.2907 183.462C68.5173 176.192 62 167.56 62 160.485C62 153.41 68.5173 144.779 84.2907 137.508C99.4664 130.513 120.923 126 145 126C169.077 126 190.534 130.513 205.709 137.508C221.483 144.779 228 153.41 228 160.485Z" fill="white" stroke="black" stroke-width="14"/>
<path d="M228 105.485C228 112.56 221.483 121.192 205.709 128.462C190.534 135.457 169.077 139.97 145 139.97C120.923 139.97 99.4664 135.457 84.2907 128.462C68.5173 121.192 62 112.56 62 105.485C62 98.4103 68.5173 89.7785 84.2907 82.5078C99.4664 75.5127 120.923 71 145 71C169.077 71 190.534 75.5127 205.709 82.5078C221.483 89.7785 228 98.4103 228 105.485Z" fill="white" stroke="black" stroke-width="14"/>
</svg>
